<!-- ╔══════════════════════════════════════════╗ -->
<!-- ║  endpapers-logo-full-white.svg           ║ -->
<!-- ║  Use: on dark/navy backgrounds           ║ -->
<!-- ╚══════════════════════════════════════════╝ -->
<svg xmlns="http://www.w3.org/2000/svg" viewBox="0 0 480 100" width="480" height="100">
  <path d="M0 5 Q0 0 5 0 L45 0 L45 80 Q22.5 92 0 80 Z" fill="white"/>
  <path d="M55 0 L95 0 Q100 0 100 5 L100 80 Q77.5 92 55 80 L55 0 Z" fill="white"/>
  <line x1="50" y1="2" x2="50" y2="80" stroke="#1B3A6B" stroke-width="3" stroke-linecap="round"/>
  <path d="M50 13 Q41 18 50 23" fill="none" stroke="#1B3A6B" stroke-width="2" stroke-linecap="round"/>
  <path d="M50 30 Q59 35 50 40" fill="none" stroke="#1B3A6B" stroke-width="2" stroke-linecap="round"/>
  <path d="M50 47 Q41 52 50 57" fill="none" stroke="#1B3A6B" stroke-width="2" stroke-linecap="round"/>
  <path d="M50 64 Q59 69 50 74" fill="none" stroke="#1B3A6B" stroke-width="2" stroke-linecap="round"/>
  <text x="118" y="62" font-family="Lora, serif" font-size="42" font-weight="400" fill="white" letter-spacing="0.5">endpapers</text>
</svg>