<svg xmlns="http://www.w3.org/2000/svg" viewBox="0 0 480 120" width="480" height="120">
  <defs>
    <linearGradient id="marble" x1="0%" y1="0%" x2="100%" y2="100%">
      <stop offset="0%" stop-color="#EBF8FF"/>
      <stop offset="50%" stop-color="#BEE3F8"/>
      <stop offset="100%" stop-color="#63B3ED"/>
    </linearGradient>
    <linearGradient id="pageWhite" x1="0%" y1="0%" x2="0%" y2="100%">
      <stop offset="0%" stop-color="#FFFFFF"/>
      <stop offset="100%" stop-color="#F0F7FF"/>
    </linearGradient>
    <linearGradient id="spineGrad" x1="0%" y1="0%" x2="100%" y2="0%">
      <stop offset="0%" stop-color="#2B6CB0"/>
      <stop offset="100%" stop-color="#1A365D"/>
    </linearGradient>
  </defs>
  <!-- Left page -->
  <path d="M4 6 L50 6 L50 106 Q27 100 4 106 Z" fill="url(#pageWhite)" stroke="#BEE3F8" stroke-width="0.8"/>
  <line x1="11" y1="26" x2="43" y2="26" stroke="#90CDF4" stroke-width="2" stroke-linecap="round" opacity="0.7"/>
  <line x1="11" y1="40" x2="43" y2="40" stroke="#90CDF4" stroke-width="2" stroke-linecap="round" opacity="0.55"/>
  <line x1="11" y1="54" x2="35" y2="54" stroke="#90CDF4" stroke-width="2" stroke-linecap="round" opacity="0.55"/>
  <line x1="11" y1="68" x2="43" y2="68" stroke="#90CDF4" stroke-width="2" stroke-linecap="round" opacity="0.5"/>
  <line x1="11" y1="82" x2="30" y2="82" stroke="#90CDF4" stroke-width="2" stroke-linecap="round" opacity="0.4"/>
  <!-- Right page marble -->
  <path d="M56 6 L102 6 L102 106 Q79 100 56 106 Z" fill="url(#marble)"/>
  <path d="M59 12 Q72 22 69 38 Q65 53 78 62 Q88 69 85 88" stroke="#2B6CB0" stroke-width="1.6" fill="none" opacity="0.55"/>
  <path d="M64 11 Q79 23 74 41 Q70 57 83 66 Q93 73 90 91" stroke="#4299E1" stroke-width="1.3" fill="none" opacity="0.45"/>
  <path d="M61 24 Q73 34 69 50 Q65 65 78 74" stroke="#90CDF4" stroke-width="1.2" fill="none" opacity="0.6"/>
  <!-- Spine -->
  <rect x="50" y="6" width="6" height="100" fill="url(#spineGrad)" rx="1"/>
  <!-- Wordmark -->
  <text x="120" y="76" font-family="Georgia, 'Times New Roman', serif" font-size="52" font-weight="400" fill="#1A365D" letter-spacing="1">endpapers</text>
</svg>