 <svg viewBox="0 0 32 32" xmlns="http://www.w3.org/2000/svg">
      <defs>
        <linearGradient id="nm" x1="0%" y1="0%" x2="100%" y2="100%"><stop offset="0%" stop-color="#EBF8FF"/><stop offset="50%" stop-color="#BEE3F8"/><stop offset="100%" stop-color="#63B3ED"/></linearGradient>
        <linearGradient id="ns" x1="0%" y1="0%" x2="100%" y2="0%"><stop offset="0%" stop-color="#2B6CB0"/><stop offset="100%" stop-color="#1A365D"/></linearGradient>
      </defs>
      <rect width="32" height="32" rx="5" fill="#1A365D"/>
      <path d="M4 5 L14 5 L14 27 Q9 26 4 27 Z" fill="white" opacity="0.95"/>
      <line x1="6" y1="10" x2="12" y2="10" stroke="#90CDF4" stroke-width="1" stroke-linecap="round" opacity="0.7"/>
      <line x1="6" y1="14" x2="12" y2="14" stroke="#90CDF4" stroke-width="1" stroke-linecap="round" opacity="0.55"/>
      <line x1="6" y1="18" x2="10" y2="18" stroke="#90CDF4" stroke-width="1" stroke-linecap="round" opacity="0.55"/>
      <line x1="6" y1="22" x2="12" y2="22" stroke="#90CDF4" stroke-width="1" stroke-linecap="round" opacity="0.5"/>
      <path d="M17 5 L28 5 L28 27 Q23 26 17 27 Z" fill="url(#nm)"/>
      <path d="M18 7 Q23 12 21 18 Q19 23 24 26" stroke="#2B6CB0" stroke-width="1" fill="none" opacity="0.6"/>
      <rect x="14" y="5" width="3" height="22" fill="url(#ns)" rx="0.5"/>
    </svg>