<!-- ╔══════════════════════════════════════════╗ -->
<!-- ║  endpapers-icon-light-64.svg             ║ -->
<!-- ║  Use: light background contexts          ║ -->
<!-- ╚══════════════════════════════════════════╝ -->
<svg xmlns="http://www.w3.org/2000/svg" viewBox="0 0 64 64" width="64" height="64">
  <rect width="64" height="64" rx="14" fill="#EFEFED"/>
  <g transform="translate(13,14.5) scale(0.38)">
    <path d="M0 5 Q0 0 5 0 L45 0 L45 80 Q22.5 92 0 80 Z" fill="white" stroke="#1a1a1a" stroke-width="2" stroke-linejoin="round"/>
    <path d="M55 0 L95 0 Q100 0 100 5 L100 80 Q77.5 92 55 80 L55 0 Z" fill="white" stroke="#1a1a1a" stroke-width="2" stroke-linejoin="round"/>
    <line x1="50" y1="2" x2="50" y2="80" stroke="#1B3A6B" stroke-width="2.5" stroke-linecap="round"/>
    <path d="M50 11 Q41 15.5 50 20" fill="none" stroke="#1a1a1a" stroke-width="1.6" stroke-linecap="round"/>
    <path d="M50 26 Q59 30.5 50 35" fill="none" stroke="#1a1a1a" stroke-width="1.6" stroke-linecap="round"/>
    <path d="M50 41 Q41 45.5 50 50" fill="none" stroke="#1a1a1a" stroke-width="1.6" stroke-linecap="round"/>
    <path d="M50 56 Q59 60.5 50 65" fill="none" stroke="#1a1a1a" stroke-width="1.6" stroke-linecap="round"/>
    <path d="M50 70 Q41 74.5 50 79" fill="none" stroke="#1a1a1a" stroke-width="1.6" stroke-linecap="round"/>
  </g>
</svg>